<svg width="87" height="27" viewBox="0 0 87 27" fill="none" xmlns="http://www.w3.org/2000/svg">
<path d="M0.79588 17.6878C0.96468 14.3974 3.10544 11.2484 10.9854 8.93319C18.8653 6.618 29.5075 5.30317 40.6621 5.26668C51.8167 5.2302 62.6094 6.4749 70.7586 8.73767C78.9077 11.0004 84.4327 14.4064 84.9883 17.6945C84.4632 14.587 78.3443 12.7821 70.6426 10.6436C62.9408 8.50505 51.1104 6.77469 40.5682 6.80918C29.99 7.66803 19.8978 7.91875 12.4505 10.1068C5.0032 12.2949 0.955412 14.578 0.79588 17.6878Z" fill="#1F69E8"/>
<path d="M1.38768 21.7313C1.55648 18.4408 3.69724 15.2918 11.5772 12.9767C19.4571 10.6615 30.0993 9.34663 41.2539 9.31014C52.4085 9.27365 63.2012 10.5184 71.3504 12.7811C79.4995 15.0439 85.0245 18.4499 85.5801 21.738C85.055 18.6304 78.9361 16.8256 71.2344 14.687C63.5326 12.5485 51.7022 10.8181 41.16 10.8526C30.5818 11.7115 20.4896 11.9622 13.0423 14.1503C5.59499 16.3384 1.54721 18.6215 1.38768 21.7313Z" fill="#1F69E8"/>
</svg>
